<?xml version="1.0" encoding="utf-8"?>
<svg xmlns="http://www.w3.org/2000/svg" height="128" width="128" viewBox="0 0 128 128">
  <g>
    <ellipse cy="64" cx="64" ry="64" rx="64" fill="#B55C0A" />
    <path id="path1" transform="rotate(0,64,64) translate(31,20) scale(2.75,2.75)  " fill="#FFFFFF" d="M5,25L17,25 17,27 5,27z M5,19L17,19 17,21 5,21z M5,13L17,13 17,15 5,15z M5,4L10,4 10,9 5,9z M18,3.072998L18,7 21.366001,7z M2,2L2,30 22,30 22,9 16,9 16,2z M1,0L16,0 17.540001,0 18,0 18,0.11300659 18.051998,0.14099121C18.144001,0.1960144,18.228001,0.26599121,18.299,0.34899902L23.758999,6.7189941C23.817001,6.7869873,23.866001,6.8609924,23.903999,6.9410095L23.928001,7 24,7 24,7.3699951 24,9 24,31C24,31.553009,23.553001,32,23,32L1,32C0.4470005,32,0,31.553009,0,31L0,1C0,0.44799805,0.4470005,0,1,0z" />
  </g>
</svg>

